HIERARCHY
ROOT hip
{
	OFFSET 0.000000 0.000000 0.000000 
	CHANNELS 6 Xposition Yposition Zposition Xrotation Zrotation Yrotation
	JOINT abdomen
	{
		OFFSET 0.000000 3.402643 0.000000 
		CHANNELS 3 Xrotation Zrotation Yrotation
		JOINT chest
		{
			OFFSET 0.000000 8.438565 -0.680529 
			CHANNELS 3 Xrotation Zrotation Yrotation
			JOINT neck
			{
				OFFSET 0.000000 10.207942 -0.272212 
				CHANNELS 3 Xrotation Zrotation Yrotation
				JOINT head
				{
					OFFSET 0.000000 3.130431 0.000000 
					CHANNELS 3 Xrotation Zrotation Yrotation
					End Site
					{
						OFFSET 0.000000 3.130435 0.000000 
					}
				}
			}
			JOINT lCollar
			{
				OFFSET 3.470700 6.669187 -0.816635 
				CHANNELS 3 Yrotation Zrotation Xrotation
				JOINT lShldr
				{
					OFFSET 3.198488 0.000000 0.000000 
					CHANNELS 3 Zrotation Yrotation Xrotation
					JOINT lForeArm
					{
						OFFSET 10.139888 0.000000 0.000000 
						CHANNELS 3 Yrotation Zrotation Xrotation
						JOINT lHand
						{
							OFFSET 8.370511 0.000000 0.000000 
							CHANNELS 3 Zrotation Yrotation Xrotation
							End Site
							{
								OFFSET 4.083176 0.000000 0.000000 
							}
						}
					}
				}
			}
			JOINT rCollar
			{
				OFFSET -3.470700 6.669187 -0.816635 
				CHANNELS 3 Yrotation Zrotation Xrotation
				JOINT rShldr
				{
					OFFSET -3.198488 0.000000 0.000000 
					CHANNELS 3 Zrotation Yrotation Xrotation
					JOINT rForeArm
					{
						OFFSET -10.139888 0.000000 0.000000 
						CHANNELS 3 Yrotation Zrotation Xrotation
						JOINT rHand
						{
							OFFSET -8.370511 0.000000 0.000000 
							CHANNELS 3 Zrotation Yrotation Xrotation
							End Site
							{
								OFFSET -4.083176 0.000000 0.000000 
							}
						}
					}
				}
			}
		}
	}
	JOINT lThigh
	{
		OFFSET 5.308129 -1.633274 1.361059 
		CHANNELS 3 Xrotation Zrotation Yrotation
		JOINT lShin
		{
			OFFSET -2.041588 -20.007561 0.000000 
			CHANNELS 3 Xrotation Zrotation Yrotation
			JOINT lFoot
			{
				OFFSET 0.000000 -19.190928 -1.224953 
				CHANNELS 3 Xrotation Yrotation Zrotation
				End Site
				{
					OFFSET 0.000000 -2.449906 4.627600 
				}
			}
		}
	}
	JOINT rThigh
	{
		OFFSET -5.308129 -1.633274 1.361059 
		CHANNELS 3 Xrotation Zrotation Yrotation
		JOINT rShin
		{
			OFFSET 2.041588 -20.007561 0.000000 
			CHANNELS 3 Xrotation Zrotation Yrotation
			JOINT rFoot
			{
				OFFSET 0.000000 -19.190928 -1.224953 
				CHANNELS 3 Xrotation Yrotation Zrotation
				End Site
				{
					OFFSET 0.000000 -2.449906 4.627600 
				}
			}
		}
	}
}
MOTION
Frames: 6
Frame Time: 0.016667
0.776484 43.679008 -1.184507 8.302760 4.957520 -11.190900 -19.183901 -0.173940 -3.412950 18.907200 5.935060 -1.781020 12.772091 -13.056639 -7.556820 14.698300 7.119320 -2.446510 2.000000 -2.000000 0.000000 93.209602 -136.031006 6.466730 113.536003 -0.156355 0.144100 0.047038 -0.027673 -146.852997 -2.000000 2.000000 0.000000 72.842201 40.574699 168.313995 -122.481003 0.146672 0.097338 -0.057361 0.030685 -147.947006 -15.667191 -4.633057 0.038460 30.896524 2.328465 2.454841 -19.689472 3.235841 2.082856 -29.900475 -7.272138 8.231586 42.149326 -2.267087 -3.024024 -15.162044 0.001263 -0.758290 
0.767576 43.677597 -1.168330 8.343210 5.053650 -11.192900 -19.184999 -0.184494 -3.357610 18.907301 5.896010 -1.760370 12.836968 -13.052998 -7.617246 14.718500 7.138020 -2.450260 2.000000 -2.000000 0.000000 93.063599 -136.149002 6.710600 113.544998 -0.156332 0.144090 0.047024 -0.027592 -146.824005 -2.000000 2.000000 0.000000 72.871399 40.535702 168.294006 -122.481003 0.146672 0.097338 -0.057325 0.030497 -147.878998 -15.623110 -4.735883 -0.085365 30.650003 2.326757 2.410580 -19.729408 3.290651 2.105647 -30.094028 -7.471937 8.008627 42.386299 -2.237377 -3.037128 -14.832386 0.307196 -0.681391 
0.755494 43.680683 -1.173205 8.392480 5.072340 -11.283400 -19.176600 -0.169699 -3.290230 18.838699 5.866520 -1.727460 12.973791 -13.063455 -7.573772 14.767000 7.107980 -2.400780 2.000000 -2.000000 0.000000 93.034401 -136.149002 6.808260 113.536003 -0.156355 0.144100 0.047053 -0.027754 -146.882996 -2.000000 2.000000 0.000000 72.832199 40.506500 168.244995 -122.460999 0.146709 0.097361 -0.057346 0.030604 -147.917999 -15.616889 -4.683096 -0.060390 30.590994 2.336548 2.424093 -19.776815 3.237938 2.109876 -30.452082 -7.606225 7.771262 42.848160 -2.222672 -3.070021 -14.147663 0.858115 -0.555145 
0.743412 43.683899 -1.178092 8.431820 5.081490 -11.366400 -19.167999 -0.158327 -3.232000 18.779800 5.846820 -1.703560 13.115218 -13.065881 -7.527031 14.825500 7.087300 -2.338570 2.000000 -2.000000 0.000000 93.014900 -136.158997 6.896120 113.526001 -0.156378 0.144110 0.047086 -0.027942 -146.951004 -2.000000 2.000000 0.000000 72.802803 40.467602 168.197006 -122.442001 0.146745 0.097384 -0.057361 0.030685 -147.947006 -15.608130 -4.636595 -0.026114 30.502419 2.337927 2.416423 -19.837084 3.172801 2.095820 -30.793915 -7.731509 7.551812 43.291634 -2.187715 -3.105575 -13.478677 1.422453 -0.418253 
0.719470 43.673225 -1.194752 8.502130 5.206150 -11.595600 -19.209000 -0.133532 -3.137950 18.632500 5.865850 -1.661530 13.263753 -12.970860 -7.434300 14.845400 7.096390 -2.246450 2.000000 -2.000000 0.000000 93.014900 -136.158997 6.935190 113.574997 -0.156263 0.144060 0.047119 -0.028131 -147.018997 -2.000000 2.000000 0.000000 72.734100 40.330700 168.257996 -122.471001 0.146690 0.097350 -0.057388 0.030819 -147.996002 -15.627652 -4.638719 0.170231 30.335726 2.342155 2.420677 -19.865946 3.060764 2.052752 -31.524549 -7.926493 7.589509 44.127831 -2.141239 -3.165865 -12.460875 2.121453 -0.302955 
0.695527 43.662552 -1.211423 8.572510 5.330750 -11.824400 -19.240000 -0.112101 -3.052910 18.485201 5.884850 -1.628380 13.412693 -12.876029 -7.339361 14.855800 7.115320 -2.153710 2.000000 -2.000000 0.000000 93.014900 -136.158997 6.974250 113.624001 -0.156149 0.144010 0.047153 -0.028319 -147.087997 -2.000000 2.000000 0.000000 72.675201 40.184101 168.317001 -122.500000 0.146636 0.097315 -0.057414 0.030953 -148.044998 -15.679380 -4.635302 0.369578 30.208975 2.334970 2.421271 -19.942991 2.948264 2.022293 -32.209759 -8.138719 7.614158 45.010559 -2.111136 -3.192280 -11.561134 2.807758 -0.182856 
